<?xml version="1.0" encoding="UTF-8"?>
<svg width="214px" height="55px" viewBox="0 0 214 55" version="1.1" xmlns="http://www.w3.org/2000/svg" xmlns:xlink="http://www.w3.org/1999/xlink">
    <!-- Generator: Sketch 47 (45396) - http://www.bohemiancoding.com/sketch -->
    <title>panels logo</title>
    <desc>Created with Sketch.</desc>
    <defs></defs>
    <g id="Page-1" stroke="none" stroke-width="1" fill="none" fill-rule="evenodd">
        <g id="panels-logo">
            <g id="Group-3">
                <g id="Group-Copy">
                    <g id="Group-2">
                        <rect id="Rectangle-2-Copy-13" fill="#D0D0D0" x="0" y="0" width="25" height="54"></rect>
                        <path d="M35.7567568,0 C45.8322218,0 54,7.61115925 54,17 C54,26.3888407 45.8322218,34 35.7567568,34 L0,34 L0,0 L35.7567568,0 Z" id="Combined-Shape-Copy-9" fill="#D0D0D0"></path>
                        <rect id="Rectangle-2-Copy-14" fill="#FFFFFF" x="0" y="0" width="25" height="34"></rect>
                    </g>
                </g>
                <path d="M71.2815333,29.7402597 C66.6033908,29.7402597 63.8850107,33.1818182 63.8850107,37.2727273 C63.8850107,41.4935065 66.6033908,44.7402597 71.2815333,44.7402597 C75.9596758,44.7402597 78.6780559,41.4935065 78.6780559,37.2727273 C78.6780559,33.1818182 75.9596758,29.7402597 71.2815333,29.7402597 Z M89.8044489,20.5844156 L89.8044489,53.8961039 L78.298747,53.8961039 L78.298747,50.1948052 L78.1723108,50.1948052 C76.1493302,53.5064935 72.1665873,55 68.3734988,55 C58.7643412,55 52,46.7532468 52,37.2077922 C52,27.6623377 58.6379049,19.4805195 68.2470625,19.4805195 C71.9769328,19.4805195 75.8964576,20.9090909 78.298747,23.8311688 L78.298747,20.5844156 L89.8044489,20.5844156 Z M106.676668,20.5844156 L95.1709665,20.5844156 L95.1709665,53.8961039 L106.676668,53.8961039 L106.676668,36.6233766 C106.676668,32.4675325 108.004249,28.8961039 112.682392,28.8961039 C118.372025,28.8961039 117.866279,34.4805195 117.866279,37.6623377 L117.866279,53.8961039 L129.371981,53.8961039 L129.371981,33.3116883 C129.371981,25.1298701 125.894983,19.4805195 117.17088,19.4805195 C112.682392,19.4805195 109.458267,20.8441558 106.803105,24.8701299 L106.676668,24.8701299 L106.676668,20.5844156 Z M143.968348,32.4025974 L157.307376,32.4025974 C156.738412,29.2207792 153.893596,27.1428571 150.795907,27.1428571 C147.445345,27.1428571 144.663747,28.961039 143.968348,32.4025974 Z M167.991242,37.987013 L167.991242,39.2207792 L143.778693,39.2207792 C143.778693,44.025974 146.244201,46.6233766 150.985561,46.6233766 C153.451069,46.6233766 155.221177,45.7792208 156.48554,43.5714286 L167.548715,43.5714286 C166.663661,47.4675325 164.387807,50.3246753 161.416555,52.2077922 C158.445302,54.0909091 154.77865,55 151.04878,55 C140.301695,55 132.272991,48.7662338 132.272991,37.2727273 C132.272991,26.1688312 139.669514,19.4805195 150.226944,19.4805195 C161.479773,19.4805195 167.991242,26.6233766 167.991242,37.987013 Z M182.461172,0 L170.95547,0 L170.95547,53.8961039 L182.461172,53.8961039 L182.461172,0 Z M213.051728,21.6233766 C209.701166,20.0649351 206.034514,19.4805195 202.367862,19.4805195 C195.28743,19.4805195 188.080562,23.1168831 188.080562,31.2987013 C188.080562,37.2727273 191.683996,39.0909091 195.28743,40.0649351 C198.890864,41.038961 202.494298,41.1688312 202.494298,43.7662338 C202.494298,45.5844156 200.344881,46.2987013 198.890864,46.2987013 C196.046048,46.2987013 192.126523,44.6103896 189.787452,42.9220779 L185.615054,51.1688312 C189.534579,53.6363636 194.086285,55 198.70121,55 C206.224169,55 214,51.3636364 214,42.5974026 C214,36.4285714 209.954039,33.8311688 204.580497,32.7272727 C203.000043,32.4025974 199.396609,32.0779221 199.396609,29.8051948 C199.396609,28.1168831 201.672462,27.5324675 203.000043,27.5324675 C204.959806,27.5324675 207.425313,28.1818182 209.195421,29.1558442 L213.051728,21.6233766 Z" id="anels-copy-3" fill="#D0D0D0"></path>
            </g>
        </g>
    </g>
</svg>